<mxfile host="app.diagrams.net" modified="2024-04-28T09:14:17.384Z" agent="Mozilla/5.0 (Windows NT 10.0; Win64; x64) AppleWebKit/537.36 (KHTML, like Gecko) Chrome/124.0.0.0 Safari/537.36" etag="xUdZ3-LYpOP17S1o_tIo" version="24.3.0" type="device">
  <diagram id="C5RBs43oDa-KdzZeNtuy" name="Page-1">
    <mxGraphModel dx="954" dy="600" grid="1" gridSize="10" guides="1" tooltips="1" connect="1" arrows="1" fold="1" page="1" pageScale="1" pageWidth="827" pageHeight="1169" background="#ffffff" math="0" shadow="0">
      <root>
        <mxCell id="WIyWlLk6GJQsqaUBKTNV-0" />
        <mxCell id="WIyWlLk6GJQsqaUBKTNV-1" parent="WIyWlLk6GJQsqaUBKTNV-0" />
        <mxCell id="7JMv_gYr1Y60frOLOlIB-0" value="&lt;font face=&quot;Times New Roman&quot; style=&quot;font-size: 17px;&quot;&gt;start&lt;/font&gt;" style="ellipse;whiteSpace=wrap;html=1;fillColor=#ffe6cc;strokeColor=#d79b00;" parent="WIyWlLk6GJQsqaUBKTNV-1" vertex="1">
          <mxGeometry x="455" y="40" width="90" height="50" as="geometry" />
        </mxCell>
        <mxCell id="7JMv_gYr1Y60frOLOlIB-1" value="Initialize Ultrasonic&lt;div&gt;sensor data&lt;/div&gt;" style="rounded=0;whiteSpace=wrap;html=1;fillColor=#d5e8d4;strokeColor=#82b366;" parent="WIyWlLk6GJQsqaUBKTNV-1" vertex="1">
          <mxGeometry x="440" y="130" width="120" height="60" as="geometry" />
        </mxCell>
        <mxCell id="7JMv_gYr1Y60frOLOlIB-2" value="" style="endArrow=classic;html=1;rounded=0;exitX=0.5;exitY=1;exitDx=0;exitDy=0;entryX=0.5;entryY=0;entryDx=0;entryDy=0;" parent="WIyWlLk6GJQsqaUBKTNV-1" source="7JMv_gYr1Y60frOLOlIB-0" target="7JMv_gYr1Y60frOLOlIB-1" edge="1">
          <mxGeometry width="50" height="50" relative="1" as="geometry">
            <mxPoint x="250" y="170" as="sourcePoint" />
            <mxPoint x="300" y="120" as="targetPoint" />
          </mxGeometry>
        </mxCell>
        <mxCell id="7JMv_gYr1Y60frOLOlIB-10" style="edgeStyle=orthogonalEdgeStyle;rounded=0;orthogonalLoop=1;jettySize=auto;html=1;exitX=0.5;exitY=1;exitDx=0;exitDy=0;entryX=0.5;entryY=0;entryDx=0;entryDy=0;" parent="WIyWlLk6GJQsqaUBKTNV-1" source="7JMv_gYr1Y60frOLOlIB-3" target="7JMv_gYr1Y60frOLOlIB-8" edge="1">
          <mxGeometry relative="1" as="geometry" />
        </mxCell>
        <mxCell id="7JMv_gYr1Y60frOLOlIB-3" value="While&lt;br&gt;loop" style="rhombus;whiteSpace=wrap;html=1;fillColor=#e1d5e7;strokeColor=#9673a6;" parent="WIyWlLk6GJQsqaUBKTNV-1" vertex="1">
          <mxGeometry x="450" y="210" width="100" height="80" as="geometry" />
        </mxCell>
        <mxCell id="7JMv_gYr1Y60frOLOlIB-4" value="" style="endArrow=classic;html=1;rounded=0;exitX=0.5;exitY=1;exitDx=0;exitDy=0;entryX=0.5;entryY=0;entryDx=0;entryDy=0;" parent="WIyWlLk6GJQsqaUBKTNV-1" source="7JMv_gYr1Y60frOLOlIB-1" target="7JMv_gYr1Y60frOLOlIB-3" edge="1">
          <mxGeometry width="50" height="50" relative="1" as="geometry">
            <mxPoint x="390" y="200" as="sourcePoint" />
            <mxPoint x="440" y="150" as="targetPoint" />
          </mxGeometry>
        </mxCell>
        <mxCell id="7JMv_gYr1Y60frOLOlIB-15" style="edgeStyle=orthogonalEdgeStyle;rounded=0;orthogonalLoop=1;jettySize=auto;html=1;exitX=0.5;exitY=1;exitDx=0;exitDy=0;" parent="WIyWlLk6GJQsqaUBKTNV-1" source="7JMv_gYr1Y60frOLOlIB-7" edge="1">
          <mxGeometry relative="1" as="geometry">
            <mxPoint x="395.0050000000001" y="680" as="targetPoint" />
          </mxGeometry>
        </mxCell>
        <mxCell id="7JMv_gYr1Y60frOLOlIB-42" style="edgeStyle=orthogonalEdgeStyle;rounded=0;orthogonalLoop=1;jettySize=auto;html=1;exitX=0;exitY=0.5;exitDx=0;exitDy=0;" parent="WIyWlLk6GJQsqaUBKTNV-1" source="7JMv_gYr1Y60frOLOlIB-7" target="7JMv_gYr1Y60frOLOlIB-3" edge="1">
          <mxGeometry relative="1" as="geometry">
            <mxPoint x="420" y="220" as="targetPoint" />
            <Array as="points">
              <mxPoint x="328" y="770" />
              <mxPoint x="40" y="770" />
              <mxPoint x="40" y="250" />
            </Array>
          </mxGeometry>
        </mxCell>
        <mxCell id="7JMv_gYr1Y60frOLOlIB-7" value="if&lt;div style=&quot;&quot;&gt;&lt;font style=&quot;font-size: 10px;&quot;&gt;distance north &amp;lt; threshold value&lt;/font&gt;&lt;span style=&quot;font-size: 11px;&quot;&gt;&amp;nbsp;&lt;/span&gt;&lt;/div&gt;" style="rhombus;whiteSpace=wrap;html=1;fillColor=#e1d5e7;strokeColor=#9673a6;" parent="WIyWlLk6GJQsqaUBKTNV-1" vertex="1">
          <mxGeometry x="328.13" y="520" width="131.87" height="110" as="geometry" />
        </mxCell>
        <mxCell id="7JMv_gYr1Y60frOLOlIB-11" style="edgeStyle=orthogonalEdgeStyle;rounded=0;orthogonalLoop=1;jettySize=auto;html=1;exitX=0.5;exitY=1;exitDx=0;exitDy=0;entryX=0.5;entryY=0;entryDx=0;entryDy=0;" parent="WIyWlLk6GJQsqaUBKTNV-1" source="7JMv_gYr1Y60frOLOlIB-8" target="7JMv_gYr1Y60frOLOlIB-7" edge="1">
          <mxGeometry relative="1" as="geometry">
            <Array as="points">
              <mxPoint x="480" y="400" />
              <mxPoint x="480" y="460" />
              <mxPoint x="395" y="460" />
            </Array>
          </mxGeometry>
        </mxCell>
        <mxCell id="7JMv_gYr1Y60frOLOlIB-8" value="Read sensor data , for north south east west&amp;nbsp;" style="whiteSpace=wrap;html=1;aspect=fixed;fillColor=#d5e8d4;strokeColor=#82b366;" parent="WIyWlLk6GJQsqaUBKTNV-1" vertex="1">
          <mxGeometry x="460" y="320" width="80" height="80" as="geometry" />
        </mxCell>
        <mxCell id="7JMv_gYr1Y60frOLOlIB-16" value="activate recovery alarm for north" style="ellipse;whiteSpace=wrap;html=1;fillColor=#ffe6cc;strokeColor=#d79b00;" parent="WIyWlLk6GJQsqaUBKTNV-1" vertex="1">
          <mxGeometry x="344" y="680" width="105" height="70" as="geometry" />
        </mxCell>
        <mxCell id="7JMv_gYr1Y60frOLOlIB-33" style="edgeStyle=orthogonalEdgeStyle;rounded=0;orthogonalLoop=1;jettySize=auto;html=1;exitX=0.5;exitY=1;exitDx=0;exitDy=0;" parent="WIyWlLk6GJQsqaUBKTNV-1" source="7JMv_gYr1Y60frOLOlIB-17" target="7JMv_gYr1Y60frOLOlIB-28" edge="1">
          <mxGeometry relative="1" as="geometry" />
        </mxCell>
        <mxCell id="7JMv_gYr1Y60frOLOlIB-44" style="edgeStyle=orthogonalEdgeStyle;rounded=0;orthogonalLoop=1;jettySize=auto;html=1;exitX=1;exitY=0.5;exitDx=0;exitDy=0;entryX=1;entryY=0.5;entryDx=0;entryDy=0;" parent="WIyWlLk6GJQsqaUBKTNV-1" source="7JMv_gYr1Y60frOLOlIB-17" target="7JMv_gYr1Y60frOLOlIB-3" edge="1">
          <mxGeometry relative="1" as="geometry">
            <mxPoint x="970" y="220" as="targetPoint" />
            <Array as="points">
              <mxPoint x="676" y="760" />
              <mxPoint x="991" y="760" />
              <mxPoint x="991" y="250" />
            </Array>
          </mxGeometry>
        </mxCell>
        <mxCell id="7JMv_gYr1Y60frOLOlIB-17" value="if&lt;div style=&quot;&quot;&gt;&lt;font style=&quot;font-size: 10px;&quot;&gt;distance south &amp;lt; threshold value&lt;/font&gt;&lt;span style=&quot;font-size: 11px;&quot;&gt;&amp;nbsp;&lt;/span&gt;&lt;/div&gt;" style="rhombus;whiteSpace=wrap;html=1;fillColor=#e1d5e7;strokeColor=#9673a6;" parent="WIyWlLk6GJQsqaUBKTNV-1" vertex="1">
          <mxGeometry x="541.88" y="520" width="133.75" height="110" as="geometry" />
        </mxCell>
        <mxCell id="7JMv_gYr1Y60frOLOlIB-34" style="edgeStyle=orthogonalEdgeStyle;rounded=0;orthogonalLoop=1;jettySize=auto;html=1;exitX=0.5;exitY=1;exitDx=0;exitDy=0;entryX=0.5;entryY=0;entryDx=0;entryDy=0;" parent="WIyWlLk6GJQsqaUBKTNV-1" source="7JMv_gYr1Y60frOLOlIB-19" target="7JMv_gYr1Y60frOLOlIB-30" edge="1">
          <mxGeometry relative="1" as="geometry" />
        </mxCell>
        <mxCell id="7JMv_gYr1Y60frOLOlIB-40" style="edgeStyle=orthogonalEdgeStyle;rounded=0;orthogonalLoop=1;jettySize=auto;html=1;exitX=1;exitY=0.5;exitDx=0;exitDy=0;entryX=1;entryY=0.5;entryDx=0;entryDy=0;" parent="WIyWlLk6GJQsqaUBKTNV-1" source="7JMv_gYr1Y60frOLOlIB-19" target="7JMv_gYr1Y60frOLOlIB-3" edge="1">
          <mxGeometry relative="1" as="geometry">
            <mxPoint x="980.2" y="294.9877204733199" as="targetPoint" />
          </mxGeometry>
        </mxCell>
        <mxCell id="7JMv_gYr1Y60frOLOlIB-19" value="if&lt;div style=&quot;&quot;&gt;&lt;font style=&quot;font-size: 10px;&quot;&gt;distance west &amp;lt; threshold value&lt;/font&gt;&lt;span style=&quot;font-size: 11px;&quot;&gt;&amp;nbsp;&lt;/span&gt;&lt;/div&gt;" style="rhombus;whiteSpace=wrap;html=1;fillColor=#e1d5e7;strokeColor=#9673a6;" parent="WIyWlLk6GJQsqaUBKTNV-1" vertex="1">
          <mxGeometry x="755.63" y="520" width="134.37" height="110" as="geometry" />
        </mxCell>
        <mxCell id="7JMv_gYr1Y60frOLOlIB-32" style="edgeStyle=orthogonalEdgeStyle;rounded=0;orthogonalLoop=1;jettySize=auto;html=1;exitX=0.5;exitY=1;exitDx=0;exitDy=0;entryX=0.5;entryY=0;entryDx=0;entryDy=0;" parent="WIyWlLk6GJQsqaUBKTNV-1" source="7JMv_gYr1Y60frOLOlIB-21" target="7JMv_gYr1Y60frOLOlIB-26" edge="1">
          <mxGeometry relative="1" as="geometry" />
        </mxCell>
        <mxCell id="7JMv_gYr1Y60frOLOlIB-38" style="edgeStyle=orthogonalEdgeStyle;rounded=0;orthogonalLoop=1;jettySize=auto;html=1;exitX=0;exitY=0.5;exitDx=0;exitDy=0;entryX=0;entryY=0.5;entryDx=0;entryDy=0;" parent="WIyWlLk6GJQsqaUBKTNV-1" source="7JMv_gYr1Y60frOLOlIB-21" target="7JMv_gYr1Y60frOLOlIB-3" edge="1">
          <mxGeometry relative="1" as="geometry">
            <mxPoint x="80" y="230" as="targetPoint" />
            <Array as="points">
              <mxPoint x="81" y="575" />
              <mxPoint x="81" y="250" />
            </Array>
          </mxGeometry>
        </mxCell>
        <mxCell id="7JMv_gYr1Y60frOLOlIB-21" value="if&lt;div&gt;&lt;font style=&quot;font-size: 10px;&quot;&gt;distance east &amp;lt; threshold value&amp;nbsp;&lt;/font&gt;&lt;/div&gt;" style="rhombus;whiteSpace=wrap;html=1;fillColor=#e1d5e7;strokeColor=#9673a6;" parent="WIyWlLk6GJQsqaUBKTNV-1" vertex="1">
          <mxGeometry x="123.44999999999999" y="520" width="115.62" height="100" as="geometry" />
        </mxCell>
        <mxCell id="7JMv_gYr1Y60frOLOlIB-23" value="" style="endArrow=classic;html=1;rounded=0;entryX=0.5;entryY=0;entryDx=0;entryDy=0;exitX=0.75;exitY=1;exitDx=0;exitDy=0;" parent="WIyWlLk6GJQsqaUBKTNV-1" source="7JMv_gYr1Y60frOLOlIB-8" target="7JMv_gYr1Y60frOLOlIB-17" edge="1">
          <mxGeometry width="50" height="50" relative="1" as="geometry">
            <mxPoint x="500" y="400" as="sourcePoint" />
            <mxPoint x="500" y="520" as="targetPoint" />
            <Array as="points">
              <mxPoint x="520" y="420" />
              <mxPoint x="520" y="460" />
              <mxPoint x="609" y="460" />
            </Array>
          </mxGeometry>
        </mxCell>
        <mxCell id="7JMv_gYr1Y60frOLOlIB-24" value="" style="endArrow=classic;html=1;rounded=0;exitX=0;exitY=0.5;exitDx=0;exitDy=0;entryX=0.5;entryY=0;entryDx=0;entryDy=0;" parent="WIyWlLk6GJQsqaUBKTNV-1" source="7JMv_gYr1Y60frOLOlIB-8" target="7JMv_gYr1Y60frOLOlIB-21" edge="1">
          <mxGeometry width="50" height="50" relative="1" as="geometry">
            <mxPoint x="390" y="470" as="sourcePoint" />
            <mxPoint x="110" y="360" as="targetPoint" />
            <Array as="points">
              <mxPoint x="181" y="360" />
            </Array>
          </mxGeometry>
        </mxCell>
        <mxCell id="7JMv_gYr1Y60frOLOlIB-25" value="" style="endArrow=classic;html=1;rounded=0;exitX=1;exitY=0.5;exitDx=0;exitDy=0;entryX=0.5;entryY=0;entryDx=0;entryDy=0;" parent="WIyWlLk6GJQsqaUBKTNV-1" source="7JMv_gYr1Y60frOLOlIB-8" target="7JMv_gYr1Y60frOLOlIB-19" edge="1">
          <mxGeometry width="50" height="50" relative="1" as="geometry">
            <mxPoint x="420" y="470" as="sourcePoint" />
            <mxPoint x="890" y="360" as="targetPoint" />
            <Array as="points">
              <mxPoint x="823" y="360" />
            </Array>
          </mxGeometry>
        </mxCell>
        <mxCell id="7JMv_gYr1Y60frOLOlIB-26" value="activate recovery alarm for east" style="ellipse;whiteSpace=wrap;html=1;fillColor=#ffe6cc;strokeColor=#d79b00;" parent="WIyWlLk6GJQsqaUBKTNV-1" vertex="1">
          <mxGeometry x="128.76" y="680" width="105" height="70" as="geometry" />
        </mxCell>
        <mxCell id="7JMv_gYr1Y60frOLOlIB-28" value="activate recovery alarm for south" style="ellipse;whiteSpace=wrap;html=1;fillColor=#ffe6cc;strokeColor=#d79b00;" parent="WIyWlLk6GJQsqaUBKTNV-1" vertex="1">
          <mxGeometry x="556.26" y="680" width="105" height="70" as="geometry" />
        </mxCell>
        <mxCell id="7JMv_gYr1Y60frOLOlIB-30" value="activate recovery alarm for west" style="ellipse;whiteSpace=wrap;html=1;fillColor=#ffe6cc;strokeColor=#d79b00;" parent="WIyWlLk6GJQsqaUBKTNV-1" vertex="1">
          <mxGeometry x="770.01" y="680" width="105" height="70" as="geometry" />
        </mxCell>
      </root>
    </mxGraphModel>
  </diagram>
</mxfile>
